<svg width="120" height="120" viewBox="0 0 120 120" fill="none" xmlns="http://www.w3.org/2000/svg">
  <rect width="120" height="120" rx="60" fill="#D9D7CF"/>
  <circle cx="60" cy="46" r="22" fill="#D8AB87"/>
  <path d="M36 43c0-15 11-27 27-27 13 0 24 6 29 17-10-2-20-1-28 3-9 1-18 4-28 7Z" fill="#5A3D2C"/>
  <path d="M29 102c4-19 17-31 31-31h2c14 0 28 12 31 31" fill="#516779"/>
  <path d="M49 54c3 3 8 6 14 6 7 0 11-2 15-5" stroke="#A37557" stroke-width="3" stroke-linecap="round"/>
  <rect x="41" y="40" width="16" height="12" rx="6" stroke="#222" stroke-width="2"/>
  <rect x="63" y="40" width="16" height="12" rx="6" stroke="#222" stroke-width="2"/>
  <path d="M57 46h6" stroke="#222" stroke-width="2"/>
</svg>
