<svg width="120" height="120" viewBox="0 0 120 120" fill="none" xmlns="http://www.w3.org/2000/svg">
  <rect width="120" height="120" rx="60" fill="#D8E6EF"/>
  <circle cx="60" cy="48" r="23" fill="#E9C09C"/>
  <path d="M38 43c0-16 11-28 28-28 14 0 25 7 30 18-11-3-22-2-32 2-8 2-16 5-26 8Z" fill="#2E2725"/>
  <path d="M28 102c4-20 19-33 32-33h2c13 0 28 13 32 33" fill="#D7D8DB"/>
  <path d="M47 95c5-8 10-13 13-13s9 5 14 13" fill="#B9C5D4"/>
  <path d="M50 56c3 4 9 8 19 8 8 0 15-2 20-7" stroke="#B88461" stroke-width="3" stroke-linecap="round"/>
  <rect x="42" y="44" width="15" height="10" rx="5" stroke="#222" stroke-width="2"/>
  <rect x="62" y="44" width="15" height="10" rx="5" stroke="#222" stroke-width="2"/>
  <path d="M57 49h5" stroke="#222" stroke-width="2"/>
</svg>
