<svg width="900" height="900" viewBox="0 0 900 900" fill="none" xmlns="http://www.w3.org/2000/svg">
  <defs>
    <linearGradient id="officeBg" x1="111" y1="48" x2="783" y2="786" gradientUnits="userSpaceOnUse">
      <stop stop-color="#F4F2EE"/>
      <stop offset="1" stop-color="#C7DDE6"/>
    </linearGradient>
    <linearGradient id="glassPanel" x1="268" y1="0" x2="268" y2="900" gradientUnits="userSpaceOnUse">
      <stop stop-color="#D5EBF0"/>
      <stop offset="1" stop-color="#9DB3B8"/>
    </linearGradient>
  </defs>
  <rect width="900" height="900" fill="url(#officeBg)"/>
  <rect x="338" width="22" height="900" fill="#EEF1EC"/>
  <rect x="364" width="18" height="900" fill="#49646D"/>
  <rect x="0" y="420" width="900" height="20" fill="#24343A"/>
  <rect x="0" y="438" width="900" height="150" fill="url(#glassPanel)" opacity="0.6"/>
  <rect x="0" y="588" width="900" height="312" fill="#D7E0DF"/>
  <rect x="0" y="720" width="900" height="180" fill="#1C222A"/>
  <ellipse cx="146" cy="242" rx="94" ry="110" fill="#CDA07B"/>
  <path d="M64 255c-6-72 44-130 112-130 42 0 82 22 102 64-30-12-64-12-98-4-39 15-71 35-116 70Z" fill="#232529"/>
  <path d="M86 334c18-48 62-78 120-78 44 0 86 15 118 44l-12 168-228 18 2-152Z" fill="#B8D1DB"/>
  <path d="M68 352c34-18 77-10 110 6l-18 86-122 6 30-98Z" fill="#D0B79A"/>
  <rect x="138" y="446" width="74" height="250" rx="36" fill="#7A583F"/>
  <rect x="214" y="454" width="78" height="260" rx="38" fill="#36525D"/>
  <rect x="136" y="682" width="82" height="122" rx="22" fill="#31505B"/>
  <rect x="217" y="694" width="86" height="112" rx="22" fill="#1F2C35"/>
  <rect x="134" y="792" width="96" height="18" rx="9" fill="#111416"/>
  <rect x="216" y="792" width="102" height="18" rx="9" fill="#111416"/>
  <path d="M64 416 270 400l-18 90-182 9-6-83Z" fill="#C39D7B"/>

  <ellipse cx="520" cy="246" rx="86" ry="100" fill="#D0A384"/>
  <path d="M444 252c-5-64 38-120 100-120 34 0 68 18 88 50-25-6-55-4-80 7-34 11-67 31-108 63Z" fill="#8E6A47"/>
  <path d="M442 334c21-39 66-63 118-63 45 0 86 18 116 50l8 205-231 8-11-200Z" fill="#F7F8F6"/>
  <rect x="448" y="530" width="96" height="230" rx="40" fill="#F4F5F3"/>
  <rect x="546" y="534" width="98" height="242" rx="42" fill="#D7DEE6"/>
  <rect x="448" y="748" width="106" height="66" rx="20" fill="#2B3440"/>
  <rect x="548" y="760" width="108" height="56" rx="20" fill="#202A33"/>
  <rect x="444" y="806" width="118" height="18" rx="9" fill="#14171B"/>
  <rect x="548" y="806" width="118" height="18" rx="9" fill="#14171B"/>
  <path d="M416 410c58-18 108-13 152 12l-20 78c-39-19-87-26-136-24l4-66Z" fill="#F6F7F4"/>
  <rect x="0" y="680" width="900" height="220" fill="#182028" opacity="0.25"/>
  <ellipse cx="624" cy="678" rx="172" ry="28" fill="#090D12" opacity="0.3"/>
</svg>
