<svg width="1600" height="980" viewBox="0 0 1600 980" fill="none" xmlns="http://www.w3.org/2000/svg">
  <defs>
    <linearGradient id="skyVilla" x1="1100" y1="10" x2="1100" y2="430" gradientUnits="userSpaceOnUse">
      <stop stop-color="#66758D"/>
      <stop offset="1" stop-color="#3A4458"/>
    </linearGradient>
    <linearGradient id="mountain" x1="804" y1="52" x2="805" y2="482" gradientUnits="userSpaceOnUse">
      <stop stop-color="#4D4D58"/>
      <stop offset="1" stop-color="#26303C"/>
    </linearGradient>
    <linearGradient id="glassWarm" x1="340" y1="306" x2="339" y2="874" gradientUnits="userSpaceOnUse">
      <stop stop-color="#D99A47"/>
      <stop offset="1" stop-color="#5F311B"/>
    </linearGradient>
    <linearGradient id="frameDark" x1="417" y1="168" x2="419" y2="894" gradientUnits="userSpaceOnUse">
      <stop stop-color="#1F2834"/>
      <stop offset="1" stop-color="#0D1218"/>
    </linearGradient>
  </defs>
  <rect width="1600" height="980" fill="url(#skyVilla)"/>
  <path d="M0 142c153-107 344-132 536-72 82-151 277-144 389-97 163-101 426-54 675 54v390H0V142Z" fill="url(#mountain)"/>
  <path d="M0 252c204-90 441-100 667-28 98-104 277-81 376-26 177-72 373-44 557 24v238H0V252Z" fill="#1E2835"/>
  <rect x="0" y="486" width="1600" height="494" fill="#15202A"/>
  <rect x="0" y="896" width="1600" height="84" fill="#111920"/>
  <path d="M0 670h865v55H0z" fill="#1C2431"/>
  <path d="M52 240h512v25H52z" fill="#12181F"/>
  <path d="M0 266h816v56H0z" fill="#1B2430"/>
  <path d="M64 214h406v18H64z" fill="#5E3C29"/>
  <path d="M290 196h200v18H290z" fill="#7A4A30"/>
  <path d="M86 322h596v282H86z" fill="url(#frameDark)"/>
  <path d="M96 334h180v260H96z" fill="url(#glassWarm)"/>
  <path d="M286 334h152v260H286z" fill="#1A212B"/>
  <path d="M448 334h216v260H448z" fill="url(#glassWarm)"/>
  <path d="M110 620h634v220H110z" fill="#121920"/>
  <path d="M126 638h170v184H126z" fill="url(#glassWarm)"/>
  <path d="M308 638h162v184H308z" fill="#1B212A"/>
  <path d="M482 638h248v184H482z" fill="url(#glassWarm)"/>
  <path d="M96 334v260M196 334v260M296 334v260M448 334v260M560 334v260M664 334v260" stroke="#0B0E13" stroke-width="8"/>
  <path d="M126 638v184M216 638v184M308 638v184M392 638v184M482 638v184M612 638v184M730 638v184" stroke="#0B0E13" stroke-width="8"/>
  <rect x="58" y="716" width="232" height="140" fill="#0F151D"/>
  <rect x="300" y="728" width="112" height="92" rx="10" fill="#62696C"/>
  <rect x="426" y="724" width="110" height="96" rx="10" fill="#6A7070"/>
  <rect x="474" y="687" width="28" height="42" rx="6" fill="#374047"/>
  <rect x="750" y="324" width="120" height="536" fill="#1D2430"/>
  <rect x="784" y="348" width="52" height="472" fill="#4A3327"/>
  <path d="M784 348h52v472" stroke="#231812" stroke-width="6"/>
  <rect x="868" y="548" width="154" height="240" fill="#5D4B3D"/>
  <rect x="886" y="566" width="118" height="204" fill="#A8763F"/>
  <rect x="882" y="506" width="166" height="28" fill="#242E39"/>
  <rect x="930" y="418" width="18" height="184" rx="9" fill="#303A45"/>
  <rect x="1034" y="624" width="196" height="118" rx="12" fill="#3F4244"/>
  <rect x="1060" y="650" width="52" height="52" rx="8" fill="#20252B"/>
  <rect x="1140" y="650" width="52" height="52" rx="8" fill="#20252B"/>
  <path d="M1028 744h210" stroke="#20262D" stroke-width="10"/>
  <path d="M0 864c214-36 414-52 650-34 198 16 393 9 594 0 129-5 236 7 356 34v116H0V864Z" fill="#243031"/>
  <path d="M930 826c41-14 75-14 116 0" stroke="#3F5C3A" stroke-width="18" stroke-linecap="round"/>
  <path d="M1106 810c58-20 117-20 186 0" stroke="#486A42" stroke-width="20" stroke-linecap="round"/>
  <path d="M1010 862c60-22 120-22 180 0" stroke="#56784F" stroke-width="18" stroke-linecap="round"/>
  <path d="M30 882c181-44 350-48 538 0" stroke="#34453E" stroke-width="16" stroke-linecap="round"/>
</svg>
