<svg width="760" height="760" viewBox="0 0 760 760" fill="none" xmlns="http://www.w3.org/2000/svg">
  <defs>
    <linearGradient id="wall" x1="487" y1="0" x2="715" y2="760" gradientUnits="userSpaceOnUse">
      <stop stop-color="#8D7B40"/>
      <stop offset="1" stop-color="#786833"/>
    </linearGradient>
    <linearGradient id="glass" x1="48" y1="0" x2="273" y2="760" gradientUnits="userSpaceOnUse">
      <stop stop-color="#CFDDD8"/>
      <stop offset="1" stop-color="#91A3AE"/>
    </linearGradient>
  </defs>

  <rect width="760" height="760" fill="#BBC6C7"/>
  <rect x="0" width="418" height="760" fill="url(#glass)"/>
  <rect x="419" width="341" height="760" fill="url(#wall)"/>
  <path d="M0 500 760 160" stroke="#5C676F" stroke-width="10"/>
  <path d="M0 526 760 185" stroke="#292B2F" stroke-width="11"/>
  <path d="M0 536 760 194" stroke="#4F5559" stroke-width="4"/>
  <rect x="86" y="0" width="15" height="760" fill="#7F929A" opacity="0.4"/>
  <rect x="198" y="0" width="11" height="760" fill="#7F929A" opacity="0.35"/>
  <rect x="303" y="0" width="13" height="760" fill="#7F929A" opacity="0.3"/>

  <ellipse cx="338" cy="313" rx="50" ry="59" fill="#6F4A36"/>
  <path d="M294 319c-4-34 23-67 53-67 23 0 44 13 51 36-16-12-36-17-54-18-15 11-31 27-50 49Z" fill="#1E1D20"/>
  <path d="M285 383c12-36 45-57 82-57 30 0 56 11 74 31l-13 114-146 12 3-100Z" fill="#8E4B2F"/>
  <rect x="322" y="472" width="46" height="184" rx="23" fill="#DDD5C1"/>
  <rect x="377" y="463" width="50" height="194" rx="24" fill="#E7E2D4"/>
  <rect x="320" y="645" width="56" height="88" rx="18" fill="#DDD5C1"/>
  <rect x="375" y="645" width="58" height="88" rx="18" fill="#E7E2D4"/>
  <rect x="319" y="719" width="62" height="18" rx="9" fill="#EEE8D8"/>
  <rect x="373" y="719" width="66" height="18" rx="9" fill="#EEE8D8"/>
  <path d="M284 390 441 377l-6 54-157 8 6-49Z" fill="#A95332"/>
  <path d="M242 424c53-13 103-10 146 12l-15 40c-43-17-84-21-122-14l-9-38Z" fill="#5A3C2B"/>
  <rect x="233" y="431" width="88" height="202" rx="30" fill="#D1D7DE"/>
  <rect x="236" y="619" width="42" height="108" rx="20" fill="#C8CDD4"/>
  <rect x="278" y="619" width="42" height="108" rx="20" fill="#D1D7DE"/>
  <rect x="230" y="716" width="54" height="18" rx="9" fill="#C0C7CF"/>
  <rect x="273" y="716" width="54" height="18" rx="9" fill="#C0C7CF"/>
  <ellipse cx="270" cy="312" rx="47" ry="57" fill="#EAC39E"/>
  <path d="M226 317c-4-40 24-75 61-75 22 0 43 12 51 35-22-12-44-15-62-12-18 15-32 29-50 52Z" fill="#1D1B1E"/>

  <ellipse cx="504" cy="326" rx="49" ry="58" fill="#E5B997"/>
  <path d="M461 333c-4-34 22-69 57-69 26 0 47 15 55 42-18-10-37-13-56-12-19 12-34 23-56 39Z" fill="#3C2F2E"/>
  <path d="M456 402c10-36 38-57 74-57 29 0 56 10 76 28l5 114-143 11-12-96Z" fill="#C8C4B8"/>
  <rect x="476" y="492" width="43" height="174" rx="22" fill="#F5F1E7"/>
  <rect x="525" y="492" width="44" height="174" rx="22" fill="#B01225"/>
  <rect x="471" y="658" width="50" height="74" rx="17" fill="#F5F1E7"/>
  <rect x="523" y="658" width="52" height="74" rx="17" fill="#A31828"/>
  <rect x="469" y="720" width="58" height="16" rx="8" fill="#211B18"/>
  <rect x="521" y="720" width="60" height="16" rx="8" fill="#211B18"/>
  <path d="M431 414c39-10 76-8 111 7l-12 44c-35-13-66-14-97-9l-2-42Z" fill="#E6DDCF"/>

  <ellipse cx="614" cy="347" rx="43" ry="52" fill="#EDC1A0"/>
  <path d="M578 351c-2-31 22-61 52-61 18 0 38 11 45 31-20-8-37-8-51-4-15 9-27 18-46 34Z" fill="#684B34"/>
  <path d="M571 413c8-31 31-50 63-50 26 0 48 10 66 29l-8 104-123 9 2-92Z" fill="#EDE3D8"/>
  <rect x="600" y="505" width="35" height="159" rx="18" fill="#EAE5D9"/>
  <rect x="638" y="505" width="36" height="159" rx="18" fill="#C6B8AA"/>
  <rect x="596" y="656" width="41" height="75" rx="17" fill="#EAE5D9"/>
  <rect x="636" y="656" width="42" height="75" rx="17" fill="#C6B8AA"/>
  <rect x="592" y="720" width="48" height="16" rx="8" fill="#1A1514"/>
  <rect x="633" y="720" width="49" height="16" rx="8" fill="#1A1514"/>
</svg>
