<svg width="360" height="220" viewBox="0 0 360 220" fill="none" xmlns="http://www.w3.org/2000/svg">
  <rect width="360" height="220" rx="22" fill="#F6F7F8"/>
  <path d="M0 52h360M0 104h360M0 156h360" stroke="#DFE5EA" stroke-width="2"/>
  <path d="M50 0v220M105 0v220M162 0v220M220 0v220M282 0v220" stroke="#E6EBEE" stroke-width="2"/>
  <path d="M15 92c42 11 90 15 146-6 63-23 116-28 199-10" stroke="#7ED0D5" stroke-width="8" stroke-linecap="round"/>
  <path d="M0 136c45-6 94 6 145 0 55-6 104-34 215-32" stroke="#87D9DD" stroke-width="7" stroke-linecap="round"/>
  <path d="M70 24c26 25 42 51 42 83 0 17-6 34-18 50" stroke="#B9C4CC" stroke-width="6" stroke-linecap="round"/>
  <path d="M194 16c27 27 39 56 34 95-2 14-7 27-15 40" stroke="#C2CBD1" stroke-width="5" stroke-linecap="round"/>
  <path d="M300 24c16 16 26 36 31 59 3 18 2 35-4 55" stroke="#C4CCD2" stroke-width="5" stroke-linecap="round"/>
  <path d="M226 82h88" stroke="#A7AFB8" stroke-width="5" stroke-linecap="round"/>
  <path d="M128 110h72" stroke="#B0B7BE" stroke-width="5" stroke-linecap="round"/>
  <path d="M48 170h82" stroke="#A7AFB8" stroke-width="5" stroke-linecap="round"/>
  <path d="M245 138h70" stroke="#B3BBC3" stroke-width="5" stroke-linecap="round"/>
  <rect x="14" y="18" width="96" height="42" rx="8" fill="#FFF"/>
  <text x="31" y="45" fill="#2F80ED" font-family="Arial, sans-serif" font-size="18" font-weight="700">Maps</text>
  <path d="M85 31h15v15M84 46l16-16" stroke="#2F80ED" stroke-width="2.6" stroke-linecap="round" stroke-linejoin="round"/>
  <path d="M209 44h40" stroke="#F0C21A" stroke-width="12" stroke-linecap="round"/>
  <text x="216" y="49" fill="#3D3F43" font-family="Arial, sans-serif" font-size="14" font-weight="700">R603</text>
  <circle cx="280" cy="47" r="18" fill="#96A8B7"/>
  <path d="M280 58s9-7 9-14a9 9 0 1 0-18 0c0 7 9 14 9 14Z" fill="#FFF"/>
  <circle cx="280" cy="43" r="3.6" fill="#96A8B7"/>
  <circle cx="240" cy="72" r="17" fill="#4DBE69"/>
  <path d="M240 82s8-6 8-13a8 8 0 1 0-16 0c0 7 8 13 8 13Z" fill="#FFF"/>
  <circle cx="240" cy="68" r="3.5" fill="#4DBE69"/>
  <path d="M256 79h65" stroke="#A1A7AC" stroke-width="3"/>
  <path d="M230 166h42" stroke="#B0B7BE" stroke-width="4" stroke-linecap="round"/>
  <path d="M20 208h40M72 208h38M292 208h34" stroke="#A8B1B8" stroke-width="4" stroke-linecap="round"/>
</svg>
