<svg width="900" height="720" viewBox="0 0 900 720" fill="none" xmlns="http://www.w3.org/2000/svg">
  <defs>
    <linearGradient id="i1sky" x1="433" y1="24" x2="470" y2="661" gradientUnits="userSpaceOnUse">
      <stop stop-color="#80B6E8"/>
      <stop offset="1" stop-color="#D9ECF7"/>
    </linearGradient>
    <linearGradient id="i1glass" x1="331" y1="170" x2="421" y2="566" gradientUnits="userSpaceOnUse">
      <stop stop-color="#88C2DF"/>
      <stop offset="1" stop-color="#183244"/>
    </linearGradient>
  </defs>
  <rect width="900" height="720" fill="url(#i1sky)"/>
  <path d="M0 548h900v172H0z" fill="#E7EEF1"/>
  <path d="M74 453c70-16 141-17 212-3 73 13 142 14 211 0 70-13 140-13 212 0 45 8 109 10 191 3v59H0v-59c28 3 54 4 74 0Z" fill="#C3D3D9"/>
  <path d="M76 497c78 20 161 27 247 14 77-12 148-12 224 0 89 13 174 8 255-14v37H76v-37Z" fill="#A6BAC3"/>
  <path d="M82 394c72-118 138-177 230-225 55-28 98-36 153-32 54 4 106 18 170 55 75 44 123 91 183 180H82Z" fill="#5C7384"/>
  <path d="M58 417c89-25 149-78 224-169 32-39 51-81 87-137h96c29 69 74 113 150 168 96 69 157 112 198 138H58Z" fill="#CFD8DC"/>
  <path d="M74 413c99-17 166-75 220-148 28-37 57-89 89-148h72c18 45 43 76 77 109 36 34 73 57 144 104 42 27 77 53 123 83H74Z" fill="#9FB8CA"/>
  <path d="M104 406c86-18 144-68 193-134 27-36 55-80 92-146h55c23 62 52 103 101 145 50 43 107 74 174 135H104Z" fill="#2F95C3"/>
  <path d="M132 405c58-15 98-55 140-111 25-35 54-81 98-150h41c27 69 59 111 114 153 45 34 89 60 138 108H132Z" fill="url(#i1glass)"/>
  <path d="M135 405h563c-45-47-87-72-136-108-57-41-90-84-118-153h-37c-44 72-71 115-97 149-44 57-83 98-135 112Z" fill="#1D3A4F" opacity=".92"/>
  <path d="M144 411h540M183 462h420M231 507h352" stroke="#486A7D" stroke-width="5"/>
  <path d="M244 413 510 412M292 464l196-1M338 509h138" stroke="#A4D1EA" stroke-width="3"/>
  <path d="M522 364c22 0 41 18 41 41M201 516c17 0 31 13 31 31" stroke="#91A56C" stroke-width="9" stroke-linecap="round"/>
</svg>
