<svg width="700" height="700" viewBox="0 0 700 700" fill="none" xmlns="http://www.w3.org/2000/svg">
  <defs>
    <linearGradient id="sky1" x1="160" y1="28" x2="532" y2="530" gradientUnits="userSpaceOnUse">
      <stop stop-color="#E6EAEE"/>
      <stop offset="1" stop-color="#B1BFCF"/>
    </linearGradient>
    <linearGradient id="tower1" x1="349" y1="72" x2="349" y2="611" gradientUnits="userSpaceOnUse">
      <stop stop-color="#ECECEC"/>
      <stop offset="1" stop-color="#B9BDC2"/>
    </linearGradient>
  </defs>
  <rect width="700" height="700" fill="url(#sky1)"/>
  <rect y="520" width="700" height="180" fill="#D8D4C9"/>
  <rect x="312" y="60" width="112" height="462" rx="14" fill="url(#tower1)"/>
  <rect x="302" y="60" width="26" height="462" fill="#594854"/>
  <rect x="424" y="60" width="20" height="462" fill="#D8DADB"/>
  <circle cx="367" cy="80" r="17" fill="#B84C49"/>
  <g fill="#6A6D72">
    <rect x="335" y="106" width="18" height="26"/>
    <rect x="361" y="106" width="18" height="26"/>
    <rect x="387" y="106" width="18" height="26"/>
    <rect x="335" y="144" width="18" height="26"/>
    <rect x="361" y="144" width="18" height="26"/>
    <rect x="387" y="144" width="18" height="26"/>
    <rect x="335" y="182" width="18" height="26"/>
    <rect x="361" y="182" width="18" height="26"/>
    <rect x="387" y="182" width="18" height="26"/>
    <rect x="335" y="220" width="18" height="26"/>
    <rect x="361" y="220" width="18" height="26"/>
    <rect x="387" y="220" width="18" height="26"/>
    <rect x="335" y="258" width="18" height="26"/>
    <rect x="361" y="258" width="18" height="26"/>
    <rect x="387" y="258" width="18" height="26"/>
    <rect x="335" y="296" width="18" height="26"/>
    <rect x="361" y="296" width="18" height="26"/>
    <rect x="387" y="296" width="18" height="26"/>
    <rect x="335" y="334" width="18" height="26"/>
    <rect x="361" y="334" width="18" height="26"/>
    <rect x="387" y="334" width="18" height="26"/>
    <rect x="335" y="372" width="18" height="26"/>
    <rect x="361" y="372" width="18" height="26"/>
    <rect x="387" y="372" width="18" height="26"/>
    <rect x="335" y="410" width="18" height="26"/>
    <rect x="361" y="410" width="18" height="26"/>
    <rect x="387" y="410" width="18" height="26"/>
  </g>
  <rect x="190" y="362" width="96" height="160" fill="#D1C6B0"/>
  <rect x="196" y="370" width="82" height="150" fill="#A96A42"/>
  <rect x="226" y="292" width="24" height="228" fill="#58434C"/>
  <rect x="450" y="350" width="140" height="172" fill="#B7C3CE"/>
  <rect x="457" y="357" width="126" height="165" fill="#CACFD4"/>
  <path d="M0 578c92-38 181-38 266 0M165 578c73-28 145-28 220 0" stroke="#6D9238" stroke-width="18" stroke-linecap="round"/>
  <path d="M440 567c72-28 143-28 220 0" stroke="#769B40" stroke-width="16" stroke-linecap="round"/>
  <path d="M72 458c0-34 28-62 62-62 34 0 62 28 62 62" stroke="#698649" stroke-width="14"/>
  <path d="M97 500c0-40 33-73 73-73 41 0 73 33 73 73" stroke="#86A956" stroke-width="16"/>
</svg>
