<svg width="700" height="700" viewBox="0 0 700 700" fill="none" xmlns="http://www.w3.org/2000/svg">
  <defs>
    <linearGradient id="sky3" x1="124" y1="31" x2="530" y2="532" gradientUnits="userSpaceOnUse">
      <stop stop-color="#D7DDE4"/>
      <stop offset="1" stop-color="#A5B5C7"/>
    </linearGradient>
    <linearGradient id="glass3" x1="451" y1="18" x2="451" y2="560" gradientUnits="userSpaceOnUse">
      <stop stop-color="#9EBAD2"/>
      <stop offset="1" stop-color="#54728A"/>
    </linearGradient>
  </defs>
  <rect width="700" height="700" fill="url(#sky3)"/>
  <rect y="560" width="700" height="140" fill="#C7CFD8"/>
  <path d="M328 210h90v350h-90z" fill="#2C333D"/>
  <path d="M392 40h120v520H392z" fill="url(#glass3)"/>
  <path d="M266 250h92v310h-92z" fill="#88A7C5"/>
  <path d="M250 250h18v310h-18z" fill="#35414D"/>
  <path d="M512 180h58v380h-58z" fill="#2D313A"/>
  <path d="M455 210h170l-42 38H415z" fill="#4D5969"/>
  <path d="M512 312h104l-80 72H432z" fill="#4C596A"/>
  <path d="M330 560h210" stroke="#425162" stroke-width="3"/>
  <path d="M414 74v466M438 74v466M462 74v466M486 74v466" stroke="#6888A2" stroke-width="2"/>
  <path d="M286 276v258M308 276v258M330 276v258" stroke="#5E7B97" stroke-width="2"/>
  <path d="M612 330h41v230h-41z" fill="#7FA2C5"/>
  <path d="M639 300h37v260h-37z" fill="#A8B8C8"/>
  <path d="M0 598c83-24 165-24 248 0" stroke="#6C8494" stroke-width="12" stroke-linecap="round"/>
  <path d="M560 596c52-18 92-18 140 0" stroke="#71899A" stroke-width="10" stroke-linecap="round"/>
</svg>
